<?xml version="1.0" encoding="iso-8859-1"?>
<!-- Generator: Adobe Illustrator 19.0.0, SVG Export Plug-In . SVG Version: 6.00 Build 0)  -->
<svg version="1.1" id="Capa_1" xmlns="http://www.w3.org/2000/svg" xmlns:xlink="http://www.w3.org/1999/xlink" x="0px" y="0px"
	 viewBox="0 0 512.043 512.043" style="enable-background:new 0 0 512.043 512.043;" xml:space="preserve">
<g>
	<g>
		<path d="M366.319,150.492c-0.035-0.089-0.058-0.178-0.097-0.265c-9.586-22.691-25.918-41.885-46.782-54.979
			c-0.15-0.073-0.267-0.192-0.421-0.256c-38.513-24.2-87.483-24.199-125.996,0c-0.154,0.064-0.268,0.181-0.417,0.253
			c-20.866,13.095-37.201,32.29-46.788,54.983c-0.037,0.086-0.06,0.173-0.096,0.261c-6.06,14.516-9.177,30.091-9.169,45.821v93.867
			c-0.003,4.71,3.813,8.531,8.523,8.533c0.003,0,0.007,0,0.01,0h221.867c4.71,0.003,8.531-3.813,8.533-8.523c0-0.003,0-0.007,0-0.01
			v-93.867C375.496,180.58,372.379,165.007,366.319,150.492z M187.755,281.643h-34.133v-51.2h34.133V281.643z M187.755,213.376
			h-34.133v-17.067c0.024-11.636,2.045-23.181,5.973-34.133h28.16V213.376z M187.755,145.109h-20.279
			c5.415-9.313,12.258-17.719,20.279-24.909V145.109z M247.488,281.643h-42.667v-51.2h42.667V281.643z M247.488,213.376h-42.667
			v-51.2h42.667V213.376z M247.488,145.109h-42.667v-37.346c13.048-7.589,27.624-12.174,42.667-13.421V145.109z M307.221,281.643
			h-42.667v-51.2h42.667V281.643z M307.221,213.376h-42.667v-51.2h42.667V213.376z M307.221,145.109h-42.667V94.342
			c15.043,1.247,29.619,5.832,42.667,13.421V145.109z M324.288,120.2c8.021,7.191,14.865,15.596,20.279,24.909h-20.279V120.2z
			 M358.421,281.643h-34.133v-51.2h34.133V281.643z M358.421,213.376h-34.133v-51.2h28.16c3.929,10.952,5.949,22.498,5.973,34.133
			V213.376z"/>
	</g>
</g>
<g>
	<g>
		<path d="M494.955,256.043h-25.6V228.87c13.305-4.678,20.299-19.256,15.621-32.561c-3.603-10.247-13.293-17.094-24.154-17.067
			h-42.667v-36.256c5.024-2.002,9.279-5.552,12.15-10.135c4.659-7.468,5.079-16.828,1.108-24.683
			C382.705,11.3,264.693-27.74,167.825,20.968C130.15,39.912,99.576,70.485,80.63,108.159c-3.971,7.859-3.551,17.22,1.108,24.692
			c2.871,4.583,7.126,8.133,12.15,10.136v36.256H51.221c-14.103-0.035-25.565,11.37-25.6,25.473
			c-0.027,10.862,6.82,20.552,17.066,24.154v27.173h-25.6c-9.421,0.012-17.054,7.646-17.067,17.067v230.4
			c-0.003,4.71,3.813,8.531,8.523,8.533c0.003,0,0.007,0,0.01,0h494.933c4.71,0.003,8.531-3.813,8.533-8.523c0-0.003,0-0.007,0-0.01
			v-230.4C512.009,263.689,504.375,256.055,494.955,256.043z M42.688,494.976h-25.6V273.109h25.6V494.976z M95.88,115.834
			L95.88,115.834C140.348,27.392,248.094-8.256,336.536,36.212c34.408,17.3,62.329,45.222,79.627,79.631
			c1.297,2.567,1.152,5.626-0.383,8.058c-2.839,4.059-8.431,5.047-12.49,2.208c-0.934-0.654-1.735-1.479-2.36-2.433
			C360.856,43.646,263.493,11.254,183.462,51.328c-31.296,15.671-56.678,41.053-72.349,72.349c-1.461,2.728-4.322,4.413-7.417,4.367
			h-0.067c-3.011,0.002-5.804-1.569-7.367-4.142C94.727,121.466,94.582,118.404,95.88,115.834z M93.888,494.976H59.755v-230.4
			v-34.133h34.133V494.976z M102.421,213.376h-51.2c-4.713,0-8.533-3.821-8.533-8.533s3.82-8.533,8.533-8.533h51.2
			c4.713,0,8.533,3.82,8.533,8.533S107.134,213.376,102.421,213.376z M196.288,494.976h-51.2v-128h51.2V494.976z M298.688,494.976
			h-85.333v-102.4h85.333V494.976z M366.955,494.976h-51.2v-128h51.2V494.976z M401.088,494.976h-17.067v-128
			c-0.012-9.421-7.646-17.054-17.067-17.067h-51.2c-9.421,0.012-17.054,7.646-17.067,17.067v8.533h-85.333v-8.533
			c-0.012-9.421-7.646-17.054-17.067-17.067h-51.2c-9.421,0.012-17.054,7.646-17.067,17.067v128h-17.067V332.843h290.133V494.976z
			 M401.088,315.776H110.955V228.87c13.27-4.628,20.276-19.138,15.647-32.408c-2.556-7.329-8.318-13.091-15.647-15.647v-36.741
			c6.689-1.905,12.276-6.522,15.408-12.731C162.2,59.734,249.302,30.736,320.911,66.574c28.021,14.024,50.745,36.748,64.769,64.769
			c3.133,6.208,8.72,10.821,15.408,12.721v36.751c-13.27,4.628-20.276,19.136-15.648,32.406c2.556,7.33,8.318,13.092,15.648,15.648
			V315.776z M452.288,494.976h-34.133V324.309v-93.867h34.133V494.976z M460.821,213.376h-51.2c-4.713,0-8.533-3.821-8.533-8.533
			s3.82-8.533,8.533-8.533h51.2c4.711,0.003,8.53,3.822,8.533,8.533C469.352,209.554,465.533,213.373,460.821,213.376z
			 M494.955,494.976h-25.6V273.109h25.6V494.976z"/>
	</g>
</g>
<g>
</g>
<g>
</g>
<g>
</g>
<g>
</g>
<g>
</g>
<g>
</g>
<g>
</g>
<g>
</g>
<g>
</g>
<g>
</g>
<g>
</g>
<g>
</g>
<g>
</g>
<g>
</g>
<g>
</g>
</svg>
