<?xml version="1.0"?>
<svg xmlns="http://www.w3.org/2000/svg" height="512px" version="1.1" viewBox="0 0 512 512" width="512px" class=""><g><g id="surface1">
<path d="M 512 256 C 512 397.386719 397.386719 512 256 512 C 114.613281 512 0 397.386719 0 256 C 0 114.613281 114.613281 0 256 0 C 397.386719 0 512 114.613281 512 256 Z M 512 256 " style="fill:#035C6E" data-original="#414952" class="" data-old_color="#035c6e"/>
<path d="M 503.136719 189.050781 L 415 100.914062 L 409.285156 239.707031 L 285.960938 116.378906 L 243.234375 230.746094 L 124.273438 111.785156 L 108.691406 159.453125 L 99 383 L 226.273438 510.273438 C 236.027344 511.398438 245.941406 512 256 512 C 397.386719 512 512 397.386719 512 256 C 512 232.832031 508.902344 210.394531 503.136719 189.050781 Z M 503.136719 189.050781 " style="fill:#2C5363" data-original="#333940" class="active-path" data-old_color="#2C5464"/>
<path d="M 380.15625 135.757812 C 380.15625 147.84375 386.308594 158.488281 395.652344 164.738281 L 336 210.863281 L 276.347656 164.738281 C 285.691406 158.488281 291.84375 147.84375 291.84375 135.761719 C 291.84375 116.515625 276.242188 100.914062 257 100.914062 C 237.757812 100.914062 222.15625 116.515625 222.15625 135.761719 C 222.15625 147.84375 228.308594 158.488281 237.652344 164.738281 L 178 210.863281 L 118.347656 164.738281 C 127.691406 158.488281 133.84375 147.84375 133.84375 135.761719 C 133.84375 116.515625 118.242188 100.914062 99 100.914062 L 99 366.421875 L 415 366.421875 L 415 100.914062 C 395.757812 100.914062 380.15625 116.515625 380.15625 135.757812 Z M 380.15625 135.757812 " style=" stroke:none;fill-rule:nonzero;fill:rgb(100%,80.784314%,0%);fill-opacity:1;" data-original="#FFCE00" class=""/>
<path d="M 380.15625 135.757812 C 380.15625 147.84375 386.308594 158.488281 395.652344 164.738281 L 336 210.863281 L 276.347656 164.738281 C 285.691406 158.488281 291.84375 147.84375 291.84375 135.761719 C 291.84375 116.515625 276.242188 100.914062 257 100.914062 C 256.867188 100.914062 256.738281 100.921875 256.605469 100.925781 L 256.605469 366.421875 L 415 366.421875 L 415 100.914062 C 395.757812 100.914062 380.15625 116.515625 380.15625 135.757812 Z M 380.15625 135.757812 " style=" stroke:none;fill-rule:nonzero;fill:rgb(100%,66.666667%,0%);fill-opacity:1;" data-original="#FFAA00" class=""/>
<path d="M 276.378906 135.757812 C 276.378906 146.460938 267.703125 155.136719 257 155.136719 C 246.296875 155.136719 237.621094 146.460938 237.621094 135.757812 C 237.621094 125.054688 246.296875 116.378906 257 116.378906 C 267.703125 116.378906 276.378906 125.054688 276.378906 135.757812 Z M 276.378906 135.757812 " style=" stroke:none;fill-rule:nonzero;fill:rgb(97.647059%,15.686275%,7.843137%);fill-opacity:1;" data-original="#F92814"/>
<path d="M 257 116.378906 C 256.867188 116.378906 256.738281 116.394531 256.605469 116.398438 L 256.605469 155.117188 C 256.738281 155.121094 256.867188 155.136719 257 155.136719 C 267.703125 155.136719 276.378906 146.460938 276.378906 135.757812 C 276.378906 125.058594 267.703125 116.378906 257 116.378906 Z M 257 116.378906 " style=" stroke:none;fill-rule:nonzero;fill:rgb(85.882353%,1.568627%,1.568627%);fill-opacity:1;" data-original="#DB0404" class=""/>
<path d="M 99 116.378906 C 109.703125 116.378906 118.378906 125.054688 118.378906 135.757812 C 118.378906 146.460938 109.703125 155.136719 99 155.136719 Z M 99 116.378906 " style=" stroke:none;fill-rule:nonzero;fill:rgb(0%,75.686275%,36.078431%);fill-opacity:1;" data-original="#00C15C" class=""/>
<path d="M 415 155.136719 C 404.296875 155.136719 395.621094 146.460938 395.621094 135.757812 C 395.621094 125.054688 404.296875 116.378906 415 116.378906 Z M 415 155.136719 " style=" stroke:none;fill-rule:nonzero;fill:rgb(3.921569%,62.745098%,30.588235%);fill-opacity:1;" data-original="#0AA04E" class=""/>
<path d="M 242 202 L 229.25 212 L 219.25 226.75 L 242 226.75 Z M 242 202 " style=" stroke:none;fill-rule:nonzero;fill:rgb(0%,87.843137%,39.607843%);fill-opacity:1;" data-original="#00E065" class=""/>
<path d="M 294.75 226.75 L 284.75 212 L 272 202 L 272 226.75 Z M 294.75 226.75 " style=" stroke:none;fill-rule:nonzero;fill:rgb(0%,75.686275%,36.078431%);fill-opacity:1;" data-original="#00C15C" class=""/>
<path d="M 219.25 301.75 L 229.25 316.5 L 242 326.5 L 242 301.75 Z M 219.25 301.75 " style=" stroke:none;fill-rule:nonzero;fill:rgb(0%,87.843137%,39.607843%);fill-opacity:1;" data-original="#00E065" class=""/>
<path d="M 272 326.5 L 284.75 316.5 L 294.75 301.75 L 272 301.75 Z M 272 326.5 " style=" stroke:none;fill-rule:nonzero;fill:rgb(0%,75.686275%,36.078431%);fill-opacity:1;" data-original="#00C15C" class=""/>
<path d="M 219.25 226.75 L 242 226.75 L 242 301.75 L 219.25 301.75 Z M 219.25 226.75 " style=" stroke:none;fill-rule:nonzero;fill:rgb(0%,75.686275%,36.078431%);fill-opacity:1;" data-original="#00C15C" class=""/>
<path d="M 272 226.75 L 294.75 226.75 L 294.75 301.75 L 272 301.75 Z M 272 226.75 " style=" stroke:none;fill-rule:nonzero;fill:rgb(3.921569%,62.745098%,30.588235%);fill-opacity:1;" data-original="#0AA04E" class=""/>
<path d="M 242 202 L 272 202 L 272 226.75 L 242 226.75 Z M 242 202 " style=" stroke:none;fill-rule:nonzero;fill:rgb(0%,75.686275%,36.078431%);fill-opacity:1;" data-original="#00C15C" class=""/>
<path d="M 256.605469 202 L 272 202 L 272 226.75 L 256.605469 226.75 Z M 256.605469 202 " style=" stroke:none;fill-rule:nonzero;fill:rgb(3.921569%,62.745098%,30.588235%);fill-opacity:1;" data-original="#0AA04E" class=""/>
<path d="M 242 301.75 L 272 301.75 L 272 326.5 L 242 326.5 Z M 242 301.75 " style=" stroke:none;fill-rule:nonzero;fill:rgb(0%,75.686275%,36.078431%);fill-opacity:1;" data-original="#00C15C" class=""/>
<path d="M 256.605469 301.75 L 272 301.75 L 272 326.5 L 256.605469 326.5 Z M 256.605469 301.75 " style=" stroke:none;fill-rule:nonzero;fill:rgb(3.921569%,62.745098%,30.588235%);fill-opacity:1;" data-original="#0AA04E" class=""/>
<path d="M 242 226.75 L 272 226.75 L 272 301.75 L 242 301.75 Z M 242 226.75 " style=" stroke:none;fill-rule:nonzero;fill:rgb(0%,87.843137%,39.607843%);fill-opacity:1;" data-original="#00E065" class=""/>
<path d="M 256.605469 226.75 L 272 226.75 L 272 301.75 L 256.605469 301.75 Z M 256.605469 226.75 " style=" stroke:none;fill-rule:nonzero;fill:rgb(0%,75.686275%,36.078431%);fill-opacity:1;" data-original="#00C15C" class=""/>
<path d="M 99 341.984375 L 415 341.984375 L 415 383 L 99 383 Z M 99 341.984375 " style=" stroke:none;fill-rule:nonzero;fill:rgb(100%,66.666667%,0%);fill-opacity:1;" data-original="#FFAA00" class=""/>
<path d="M 256.605469 341.984375 L 415 341.984375 L 415 383 L 256.605469 383 Z M 256.605469 341.984375 " style="fill:#FF7D0A" data-original="#FF7D0A" class="" data-old_color=" stroke:nonefill-rule:nonzero;rgb(100%,49.019608%,3.921569%);fill-opacity:1;"/>
</g></g> </svg>
