<?xml version="1.0"?>
<svg xmlns="http://www.w3.org/2000/svg" xmlns:xlink="http://www.w3.org/1999/xlink" version="1.1" id="Layer_1" x="0px" y="0px" viewBox="0 0 460 460" style="enable-background:new 0 0 460 460;" xml:space="preserve" width="512px" height="512px" class=""><g><g><g>
	<path style="fill:#26C599" d="M230,0C102.975,0,0,102.974,0,230c0,98.18,61.517,181.993,148.109,214.994l308.813-252.709   C438.928,83.202,344.181,0,230,0z" data-original="#26C599" class="" data-old_color="#25C599"/>
	<path style="fill:#1E9574" d="M456.905,192.288L340.307,75.69L74,370.865l74.112,74.112C173.554,454.674,201.153,460,230,460   c127.025,0,230-102.975,230-230C460,217.154,458.929,204.56,456.905,192.288z" data-original="#1E9574" class="" data-old_color="##1E957"/>
	<polygon style="fill:#38779F" points="142.074,219.981 74,370.865 140.783,368.103 182.907,420 250.981,269.116  " data-original="#38779F" class="" data-old_color="#3A779E"/>
	<polygon style="fill:#353F6E" points="317.926,219.981 386,370.865 319.217,368.103 277.093,420 209.019,269.116  " data-original="#353F6E" class="" data-old_color="#353E6D"/>
	<path style="fill:#FF8400" d="M386,186c0,86.156-69.844,156-156,156L119.908,186L230,30C316.156,30,386,99.844,386,186z" data-original="#FF8400" class="" data-old_color="#FF8C00"/>
	<path style="fill:#FFC900" d="M74,186c0,86.156,69.844,156,156,156V30C143.844,30,74,99.844,74,186z" data-original="#FFC900" class="" data-old_color="#FFC100"/>
	<path style="fill:#FFFFFF;" d="M345.92,185.995L230,80.075c-100,14-115.92,105.92-115.92,105.92   c-0.005,63.926,51.999,115.93,115.92,115.93C293.913,301.925,345.909,249.935,345.92,185.995z" data-original="#FFFFFF" class=""/>
	<path style="fill:#FEE187" d="M134.08,185.995c0-52.89,43.03-95.92,95.92-95.92v191.85c52.89,0,95.92-43.03,95.92-95.93h20   c0.005-63.917-51.999-115.92-115.92-115.92c-63.916,0-115.913,51.993-115.92,115.908C114.08,185.995,134.08,185.995,134.08,185.995   z" data-original="#FEE187" class="active-path"/>
</g></g></g> </svg>
