<svg height="511pt" viewBox="-1 0 511 511.99987" width="511pt" xmlns="http://www.w3.org/2000/svg"><path d="m256.136719 235.347656c-3.792969-1.722656-8.261719-.042968-9.980469 3.746094-9.566406 21.054688-24.910156 38.855469-44.371094 51.476562-6.367187 4.125-11.664062 9.722657-15.320312 16.183594l-46.042969 81.332032c-1.84375 3.257812-6.527344 3.253906-8.371094 0l-46.039062-81.332032c-3.660157-6.464844-8.949219-12.054687-15.296875-16.167968-34.550782-22.390626-55.6875-60.691407-55.125-103.109376.9375-65.050781 55.027344-118.878906 120.648437-118.878906 75.277344 0 132.84375 68.738282 118.492188 143.535156-.785157 4.089844 1.898437 8.039063 5.984375 8.824219 4.089844.785157 8.042968-1.894531 8.824218-5.984375 25.390626-132.296875-135.71875-214.9921872-229.148437-121.609375-61.074219 61.046875-50.710937 162.679688 22.125 209.875 8.800781 5.707031 6.40625 3.933594 56.414063 92.277344 3.578124 6.316406 10.050781 10.089844 17.308593 10.089844 7.261719 0 13.730469-3.773438 17.308594-10.09375 49.855469-88.066407 47.507813-86.5 56.441406-92.292969 21.882813-14.1875 39.136719-34.203125 49.898438-57.886719 1.722656-3.792969.042969-8.261719-3.75-9.984375zm0 0"/><path d="m64.195312 127.191406c-3.597656-2.601562-8.625-1.792968-11.226562 1.808594-31.898438 44.128906-24.058594 106.421875 19.875 140.894531 66.855469 52.460938 166.09375 5.203125 166.09375-80.726562 0-83.71875-95.160156-132.429688-162.976562-83.238281-3.59375 2.605468-4.394532 7.636718-1.785157 11.230468 2.605469 3.597656 7.636719 4.398438 11.230469 1.789063 57.21875-41.503907 137.449219-.371094 137.449219 70.21875 0 19.53125-6.390625 37.996093-18.476563 53.402343-29.675781 37.820313-84.082031 44.113282-121.605468 14.671876-37.050782-29.074219-43.664063-81.609376-16.769532-118.820313 2.601563-3.601563 1.792969-8.628906-1.808594-11.230469zm0 0"/><path d="m326.269531 31.703125c-48.535156 48.511719-40.082031 129.050781 17.539063 166.390625 6.523437 4.226562 4.535156 2.625 43.5 71.457031 6.582031 11.625 23.3125 11.632813 29.898437 0 38.945313-68.796875 36.964844-67.21875 43.519531-71.46875 30.773438-19.953125 49.144532-53.730469 49.144532-90.351562 0-94.789063-115.363282-144.230469-183.601563-76.027344zm126.253907 153.722656c-5.1875 3.367188-9.511719 7.933594-12.5 13.207031-38.792969 68.53125-35.992188 64.554688-37.765626 64.554688-1.773437 0 1.011719 3.953125-37.765624-64.554688-2.988282-5.277343-7.304688-9.839843-12.480469-13.195312-26.933594-17.453125-42.738281-47.015625-42.277344-79.074219 1.160156-80.503906 99.40625-121.804687 157.496094-64.523437 42.164062 41.585937 34.929687 111.40625-14.707031 143.585937zm0 0"/><path d="m402.199219 32.714844c-41.773438 0-74.808594 34.105468-74.808594 74.980468 0 63.59375 75.488281 99.007813 124.335937 56.152344 3.339844-2.929687 3.671876-8.011718.742188-11.351562s-8.011719-3.667969-11.351562-.742188c-38.425782 33.714844-97.640626 5.789063-97.640626-44.058594 0-32.238281 26.046876-58.898437 58.722657-58.898437 42.386719 0 70.390625 43.03125 54.261719 81.636719-1.710938 4.101562.226562 8.808594 4.324218 10.523437 4.09375 1.707031 8.808594-.222656 10.519532-4.320312 20.558593-49.21875-15.21875-103.921875-69.105469-103.921875zm0 0"/><path d="m260.128906 300.460938c-41.753906 41.734374-34.503906 111.054687 15.09375 143.195312 5.246094 3.398438 3.421875 1.726562 36.609375 60.351562 6.046875 10.683594 21.371094 10.628907 27.386719 0 33.183594-58.621093 31.355469-56.949218 36.625-60.367187 26.480469-17.167969 42.289062-46.234375 42.289062-77.753906 0-82.84375-100.125-123.277344-158.003906-65.425781zm107.511719 130.527343c-9.179687 5.953125-8.535156 7.273438-41.546875 65.589844-.253906.453125-.882812.457031-1.140625 0-33.324219-58.867187-32.492187-59.722656-41.53125-65.578125-22.566406-14.625-35.808594-39.394531-35.421875-66.257812.972656-67.453126 83.292969-102.054688 131.960938-54.058594 35.328124 34.839844 29.265624 93.34375-12.320313 120.304687zm0 0"/><path d="m289.8125 317.398438c-26.199219 19.335937-32.691406 56.980468-12.679688 84.101562 20.253907 27.441406 58.015626 31.929688 84.101563 12.679688 15.285156-11.28125 24.410156-29.398438 24.410156-48.460938 0-48.871094-55.910156-77.789062-95.832031-48.320312zm61.871094 83.839843c-28.800782 21.253907-70.195313.933594-70.195313-35.382812 0-42.316407 54.230469-60.441407 79.484375-26.226563 14.65625 19.859375 9.894532 47.449219-9.289062 61.609375zm0 0"/></svg>