<?xml version="1.0"?>
<svg xmlns="http://www.w3.org/2000/svg" xmlns:xlink="http://www.w3.org/1999/xlink" version="1.1" id="Capa_1" x="0px" y="0px" viewBox="0 0 69.196 69.196" style="enable-background:new 0 0 69.196 69.196;" xml:space="preserve" width="512px" height="512px" class=""><g><g>
	<g>
		<path d="M4.581,67.315h43.036c1.104,0,2-0.896,2-2s-0.896-2-2-2H6.641c0.908-15,11.871-27.118,15.146-30.332    c2.294,1.122,4.862,1.74,7.584,1.74c2.696,0,5.239-0.65,7.517-1.753c1.571,1.471,5.984,5.886,9.654,12.305    c0.369,0.646,1.045,1.004,1.738,1.004c0.337,0,0.678-0.087,0.991-0.267c0.959-0.548,1.292-1.771,0.743-2.729    c-3.49-6.104-7.522-10.456-9.646-12.534c3.872-3.184,6.347-8.009,6.347-13.402C46.715,7.782,38.934,0,29.37,0    c-9.565,0-17.347,7.782-17.347,17.347c0,5.371,2.455,10.178,6.299,13.363C13.868,35.196,2.579,48.299,2.579,65.256    C2.581,66.36,3.477,67.315,4.581,67.315z M16.025,17.347C16.025,9.988,22.012,4,29.372,4c7.359,0,13.345,5.987,13.345,13.347    s-5.986,13.347-13.345,13.347C22.012,30.693,16.025,24.706,16.025,17.347z" data-original="#000000" class="active-path" data-old_color="#4a4a4a" fill="#4a4a4a"/>
		<path d="M43.617,54.315c-1.104,0-2,0.896-2,2s0.896,2,2,2h8v8.881c0,1.104,0.896,2,2,2s2-0.896,2-2v-8.881h9c1.104,0,2-0.896,2-2    s-0.896-2-2-2h-9v-9.119c0-1.104-0.896-2-2-2s-2,0.896-2,2v9.119H43.617z" data-original="#000000" class="active-path" data-old_color="#4a4a4a" fill="#4a4a4a"/>
	</g>
</g></g> </svg>
